<?xml version="1.0" encoding="UTF-8"?>
<!DOCTYPE svg PUBLIC "-//W3C//DTD SVG 1.1//EN" "http://www.w3.org/Graphics/SVG/1.1/DTD/svg11.dtd">
<!-- Creator: CorelDRAW X7 -->
<svg xmlns="http://www.w3.org/2000/svg" xml:space="preserve" width="305px" height="40px" version="1.1" style="shape-rendering:geometricPrecision; text-rendering:geometricPrecision; image-rendering:optimizeQuality; fill-rule:evenodd; clip-rule:evenodd"
viewBox="0 0 5510 730"
 xmlns:xlink="http://www.w3.org/1999/xlink">
 <defs>
  <style type="text/css">
   <![CDATA[
    .fil0 {fill:#2B2A29}
    .fil1 {fill:#E31E24}
    .fil2 {fill:white}
   ]]>
  </style>
 </defs>
 <g id="Слой_x0020_1">
  <metadata id="CorelCorpID_0Corel-Layer"/>
  <g id="_2194968617056">
   <path class="fil0" d="M974 549l0 -366 0 -12 13 0 83 0 7 0 4 6 123 204 121 -204 4 -6 7 0 86 0 12 0 0 12 0 366 0 13 -12 0 -68 0 -12 0 0 -13 0 -165 0 0 1 -79 -108 178 -4 6 -7 0 -44 0 -7 0 -4 -6 -107 -178 1 59 0 0 0 185 0 13 -12 0 -64 0 -13 0 0 -13zm907 -192c-1,10 -3,19 -6,29l-2 10 -10 0 -280 0c4,27 17,48 34,63 24,19 56,29 91,29 25,0 46,-2 66,-6 19,-5 37,-11 54,-21l13 -7 5 14 20 55 4 11 -10 5c-26,11 -48,19 -72,24 -25,4 -51,6 -84,6 -69,0 -122,-19 -159,-53 -39,-36 -59,-87 -59,-149 0,-60 22,-110 60,-146 38,-37 91,-58 152,-58 60,0 104,16 135,43 33,30 49,72 49,121 0,11 0,21 -1,30zm-268 -88c-15,12 -26,28 -31,49l209 0c-2,-25 -9,-43 -23,-55 -16,-14 -41,-20 -77,-20 -29,0 -57,9 -78,26zm380 11l0 -97 0 -12 13 0 281 0 12 0 0 12 0 300 34 0 13 0 0 13 -8 143 -1 12 -12 0 -51 0 -12 0 -1 -11 -7 -78 -268 0 -11 78 -1 11 -11 0 -54 0 -12 0 0 -12 0 -141 0 -7 6 -4c35,-18 57,-45 71,-79l0 0c14,-36 19,-79 19,-128zm213 -29l-125 0 0 54c0,42 -5,79 -16,112 -9,24 -21,46 -36,66l177 0 0 -232zm183 298l0 -366 0 -12 13 0 67 0 12 0 0 12 0 186 0 0 -1 57 195 -250 3 -5 6 0 65 0 12 0 0 12 0 366 0 13 -12 0 -67 0 -12 0 0 -13 0 -144 0 0 1 -94 -193 246 -4 5 -6 0 -66 0 -13 0 0 -13zm552 -297c-22,5 -44,12 -67,22l-13 6 -4 -14 -15 -55 -3 -10 11 -4c28,-12 52,-20 77,-26 26,-5 52,-8 83,-8 57,0 99,11 127,33 30,24 44,59 44,107l0 153c0,14 1,23 5,27l0 0c4,4 13,5 28,5l12 0 0 13 0 48 0 9 -9 3c-8,3 -16,5 -24,6 -9,2 -18,2 -28,2 -18,0 -34,-7 -45,-20 -6,-7 -10,-16 -14,-26 -14,13 -31,23 -50,30 -27,11 -57,16 -93,16 -45,0 -80,-11 -104,-32 -26,-22 -39,-54 -39,-92 0,-18 2,-34 9,-50 6,-16 15,-30 28,-46l3 -2 3 -1c34,-11 68,-18 106,-23 35,-5 75,-8 121,-9l0 -8c0,-22 -5,-37 -16,-46 -13,-10 -34,-15 -67,-15 -22,0 -44,2 -66,7zm95 226c19,-6 36,-17 54,-31l0 -59c-36,1 -67,3 -93,6 -28,3 -52,8 -74,14 -3,4 -5,8 -6,13 -2,6 -3,12 -3,20 0,16 5,27 14,35 10,8 25,12 45,12 23,0 44,-3 63,-10zm510 -308c23,5 43,12 63,23l11 6 -6 11 -29 50 -5 11 -11 -6c-15,-8 -30,-13 -46,-17 -15,-4 -32,-5 -49,-5 -43,0 -77,11 -99,32 -22,21 -35,52 -35,92 0,36 14,66 35,87 22,22 53,34 88,34 21,0 42,-2 62,-7 20,-5 38,-12 56,-22l13 -7 5 14 20 53 4 10 -10 6c-24,13 -48,21 -73,27 -25,5 -52,7 -81,7 -63,0 -116,-21 -152,-55 -39,-37 -60,-88 -60,-146 0,-60 24,-110 63,-146 40,-37 97,-59 159,-59 30,0 55,3 77,7zm323 -2l0 -146 0 -12 12 0 66 0 13 0 0 12 0 146c3,-1 6,-2 9,-2l0 0c9,-2 17,-3 26,-3 60,0 111,19 147,55 34,35 53,85 53,148 0,60 -21,110 -56,145 -36,37 -87,58 -144,58 -9,0 -17,-1 -26,-2l0 0c-3,-1 -6,-1 -9,-2l0 153 0 12 -13 0 -66 0 -12 0 0 -12 0 -153c-3,1 -6,1 -9,2l0 0c-9,1 -18,2 -26,2 -61,0 -112,-19 -147,-55 -34,-34 -54,-84 -54,-148 0,-59 21,-109 56,-145 37,-37 88,-58 145,-58 8,0 17,1 26,3l0 0c3,0 6,1 9,2zm102 75c-4,1 -8,2 -11,3l0 241c3,1 7,2 11,2 6,1 13,2 20,2 35,0 63,-11 82,-33 19,-20 29,-51 29,-92 0,-40 -10,-71 -29,-92 -19,-21 -47,-32 -82,-32 -7,0 -14,0 -20,1zm-113 246c3,0 7,-1 11,-2l0 -241c-4,-1 -8,-2 -11,-3 -7,-1 -13,-1 -21,-1 -34,0 -62,11 -81,32 -19,21 -30,52 -30,92 0,41 11,72 30,92 19,22 47,33 81,33 8,0 14,-1 21,-2zm766 -132c-1,10 -3,19 -6,29l-2 10 -10 0 -280 0c4,27 17,48 34,63 23,19 56,29 91,29 25,0 46,-2 65,-6 20,-5 38,-11 55,-21l13 -7 5 14 20 55 4 11 -10 5c-26,11 -48,19 -73,24 -24,4 -50,6 -84,6 -68,0 -121,-19 -159,-53 -38,-36 -58,-87 -58,-149 0,-60 22,-110 60,-146 38,-37 91,-58 152,-58 59,0 104,16 134,43 34,30 50,72 50,121 0,11 0,21 -1,30zm-268 -88c-15,12 -26,28 -31,49l209 0c-2,-25 -9,-43 -23,-55 -16,-14 -41,-20 -77,-20 -29,0 -57,9 -78,26zm402 461l-68 0 -13 0 0 -12 0 -521 0 -10 10 -2c28,-7 54,-12 81,-16 27,-4 55,-6 88,-6 68,0 121,19 158,54 37,35 57,86 57,150 0,61 -18,112 -53,149 -34,33 -83,53 -147,53 -26,0 -47,-2 -67,-8 -12,-4 -23,-9 -34,-15l0 172 0 12 -12 0zm46 -485c-12,2 -22,4 -34,7l0 201c15,12 30,21 45,26 17,6 35,8 56,8 33,0 60,-11 78,-31 19,-20 29,-51 29,-89 0,-41 -11,-72 -31,-93 -21,-21 -52,-32 -91,-32 -22,0 -38,1 -52,3zm421 7c-22,5 -44,12 -67,22l-13 6 -4 -14 -15 -55 -3 -10 10 -4c29,-12 53,-20 78,-26 26,-5 52,-8 83,-8 57,0 99,11 127,33 30,24 44,59 44,107l0 153c0,14 1,23 5,27l0 0c4,4 13,5 28,5l12 0 0 13 0 48 0 9 -9 3c-8,3 -16,5 -24,6 -9,2 -18,2 -28,2 -18,0 -34,-7 -45,-20 -6,-7 -11,-16 -14,-26 -14,13 -31,23 -50,30 -27,11 -58,16 -93,16 -45,0 -80,-11 -104,-32 -26,-22 -39,-54 -39,-92 0,-18 2,-34 9,-50 6,-16 15,-30 28,-46l3 -2 3 -1c34,-11 67,-18 106,-23 35,-5 75,-8 121,-9l0 -8c0,-22 -5,-37 -16,-46 -13,-10 -34,-15 -67,-15 -22,0 -44,2 -66,7zm95 226c19,-6 36,-17 54,-31l0 -59c-36,1 -67,3 -93,6 -28,3 -52,8 -74,14 -3,4 -5,8 -7,13 -1,6 -2,12 -2,20 0,16 5,27 14,35 10,8 25,12 45,12 23,0 44,-3 63,-10z"/>
   <g>
    <rect class="fil1" width="730" height="730"/>
    <path class="fil2" d="M730 96l0 75c-306,30 -554,261 -608,559l-32 0c39,-333 305,-598 640,-634zm-557 -16c49,0 89,40 89,90 0,49 -40,89 -89,89 -50,0 -90,-40 -90,-89 0,-50 40,-90 90,-90z"/>
   </g>
  </g>
 </g>
</svg>
